<svg xmlns="http://www.w3.org/2000/svg" xmlns:xlink="http://www.w3.org/1999/xlink" viewBox="0 0 1080 1080"><defs><style>.cls-1{fill:url(#radial-gradient);}</style><radialGradient id="radial-gradient" cx="227.68" cy="908.84" r="1071.9" gradientUnits="userSpaceOnUse"><stop offset="0" stop-color="#fec053"/><stop offset="0.47" stop-color="#f2203e"/><stop offset="0.71" stop-color="#b71fa8"/><stop offset="1" stop-color="#5351d6"/></radialGradient></defs><g id="_Camada_2" data-name="&lt;Camada&gt;"><path class="cls-1" d="M745.32,70.76H334.68c-145.79,0-263.92,118.12-263.92,263.92V745.32c0,145.79,118.13,263.92,263.92,263.92H745.32c145.64,0,263.92-118.13,263.92-263.92V334.68C1009.24,188.88,891,70.76,745.32,70.76ZM924.26,744.1c-3.19,65.37-30.41,106.57-47.74,123.91C818.75,927.3,752.46,927.3,539.93,927.3s-278.68,0-336.45-59.29c-17.33-17.34-44.7-58.54-47.74-123.91-3-65.53-4.56-177.12-3.8-204.18-.76-26.91.76-138.5,3.8-204S186.15,229.32,203.48,212c57.77-59.29,123.91-59.29,336.45-59.29s278.82,0,336.59,59.29c17.33,17.33,44.55,58.53,47.74,123.91s4.56,177.11,3.8,204C928.82,567,927.3,678.57,924.26,744.1ZM539.93,297.74c-133.79,0-242.19,108.4-242.19,242.18,0,133.94,108.4,242.34,242.19,242.34s242.33-108.4,242.33-242.34C782.26,406.14,673.86,297.74,539.93,297.74Zm0,399.38c-86.66,0-157-70.39-157-157.2,0-86.65,70.39-157,157-157s157.19,70.39,157.19,157A157.21,157.21,0,0,1,539.93,697.12ZM845.93,288a56.47,56.47,0,1,1-56.47-56.47A56.47,56.47,0,0,1,845.93,288Z"/></g></svg>